<svg width="100%" height="100%" viewBox="0 0 64 64" fill="none"
    xmlns="http://www.w3.org/2000/svg">
    <path opacity="0.2"
        d="M50 38.2155L40.8007 47.4147C40.5565 47.659 40.2532 47.8358 39.9204 47.928C39.5875 48.0201 39.2365 48.0246 38.9014 47.9408L24.4122 44.3185C24.1404 44.2506 23.886 44.1263 23.6653 43.9537L10 33.268L18.1436 17.9475L30.9736 14.2071C31.4319 14.0735 31.9229 14.1082 32.3578 14.3051L41 18.2155H35.8284C35.5658 18.2155 35.3057 18.2672 35.0631 18.3677C34.8204 18.4682 34.5999 18.6155 34.4142 18.8012L24.6306 28.5848C24.428 28.7875 24.2713 29.0313 24.1711 29.2997C24.0709 29.5682 24.0295 29.855 24.0498 30.1408C24.0702 30.4267 24.1517 30.7048 24.2888 30.9564C24.426 31.208 24.6156 31.4271 24.8448 31.5991L26.2 32.6155C27.5848 33.654 29.269 34.2155 31 34.2155C32.731 34.2155 34.4152 33.654 35.8 32.6155L39 30.2155L50 38.2155Z"
        fill="currentColor"></path>
    <path
        d="M60.1794 30.4462L54 33.5359L46 18.2154L52.2423 15.0942C52.7113 14.8597 53.2536 14.8188 53.7525 14.9802C54.2514 15.1416 54.6669 15.4925 54.9096 15.9573L61.0578 27.7316C61.1808 27.967 61.2556 28.2246 61.2779 28.4892C61.3002 28.7539 61.2696 29.0204 61.1878 29.2731C61.1061 29.5258 60.9748 29.7596 60.8016 29.9611C60.6285 30.1625 60.417 30.3274 60.1794 30.4462V30.4462Z"
        stroke="currentColor" stroke-width="1.5" stroke-linecap="round" stroke-linejoin="round">
    </path>
    <path
        d="M10.0011 33.2681L3.8217 30.1784C3.58414 30.0596 3.37261 29.8947 3.19947 29.6932C3.02633 29.4918 2.89504 29.258 2.81327 29.0052C2.7315 28.7525 2.70088 28.4861 2.7232 28.2214C2.74552 27.9568 2.82033 27.6992 2.94327 27.4638L9.09151 15.6895C9.33421 15.2247 9.74973 14.8738 10.2486 14.7124C10.7475 14.551 11.2898 14.5919 11.7588 14.8264L18.0011 17.9475L10.0011 33.2681Z"
        stroke="currentColor" stroke-width="1.5" stroke-linecap="round" stroke-linejoin="round">
    </path>
    <path
        d="M54 33.5359L50 38.2154L40.8007 47.4147C40.5565 47.6589 40.2532 47.8357 39.9204 47.9279C39.5875 48.0201 39.2365 48.0245 38.9014 47.9407L24.4122 44.3184C24.1404 44.2505 23.886 44.1262 23.6653 43.9537L10 33.2679"
        stroke="currentColor" stroke-width="1.5" stroke-linecap="round" stroke-linejoin="round">
    </path>
    <path
        d="M50 38.2155L39 30.2155L35.8 32.6155C34.4152 33.654 32.7309 34.2155 31 34.2155C29.269 34.2155 27.5848 33.654 26.2 32.6155L24.8448 31.5991C24.6156 31.4271 24.4259 31.208 24.2888 30.9564C24.1516 30.7048 24.0701 30.4267 24.0498 30.1408C24.0295 29.855 24.0709 29.5682 24.1711 29.2997C24.2713 29.0313 24.428 28.7875 24.6306 28.5849L34.4142 18.8012C34.5999 18.6155 34.8204 18.4682 35.063 18.3677C35.3057 18.2672 35.5658 18.2155 35.8284 18.2155H46"
        stroke="currentColor" stroke-width="1.5" stroke-linecap="round" stroke-linejoin="round">
    </path>
    <path
        d="M18.1433 17.9475L30.9733 14.2071C31.4316 14.0735 31.9226 14.1082 32.3576 14.3051L40.9997 18.2155"
        stroke="currentColor" stroke-width="1.5" stroke-linecap="round" stroke-linejoin="round">
    </path>
    <path d="M28 53.2154L20.4651 51.3317C20.1594 51.2552 19.876 51.1076 19.6381 50.9008L14 46"
        stroke="currentColor" stroke-width="1.5" stroke-linecap="round" stroke-linejoin="round">
    </path>
</svg>