<svg width="100%" height="100%" viewBox="0 0 64 64" fill="none"
    xmlns="http://www.w3.org/2000/svg">
    <path opacity="0.2"
        d="M49.0005 54C52.8665 54 56.0005 50.866 56.0005 47C56.0005 43.134 52.8665 40 49.0005 40C45.1345 40 42.0005 43.134 42.0005 47C42.0005 50.866 45.1345 54 49.0005 54Z"
        fill="currentColor"></path>
    <path opacity="0.2"
        d="M15 24C18.866 24 22 20.866 22 17C22 13.134 18.866 10 15 10C11.134 10 8 13.134 8 17C8 20.866 11.134 24 15 24Z"
        fill="currentColor"></path>
    <path
        d="M49.0005 54C52.8665 54 56.0005 50.866 56.0005 47C56.0005 43.134 52.8665 40 49.0005 40C45.1345 40 42.0005 43.134 42.0005 47C42.0005 50.866 45.1345 54 49.0005 54Z"
        stroke="currentColor" stroke-width="1.5" stroke-linecap="round" stroke-linejoin="round">
    </path>
    <path d="M49.0006 40L49.0002 29.9703C49.0001 26.7878 47.7358 23.7358 45.4855 21.4855L36 12"
        stroke="currentColor" stroke-width="1.5" stroke-linecap="round" stroke-linejoin="round">
    </path>
    <path d="M36 22V12H46" stroke="currentColor" stroke-width="1.5" stroke-linecap="round"
        stroke-linejoin="round"></path>
    <path
        d="M15 24C18.866 24 22 20.866 22 17C22 13.134 18.866 10 15 10C11.134 10 8 13.134 8 17C8 20.866 11.134 24 15 24Z"
        stroke="currentColor" stroke-width="1.5" stroke-linecap="round" stroke-linejoin="round">
    </path>
    <path d="M15 24L15.0004 34.0297C15.0005 37.2122 16.2648 40.2642 18.5151 42.5145L28.0006 52"
        stroke="currentColor" stroke-width="1.5" stroke-linecap="round" stroke-linejoin="round">
    </path>
    <path d="M28.0003 42V52H18.0003" stroke="currentColor" stroke-width="1.5"
        stroke-linecap="round" stroke-linejoin="round"></path>
</svg>